# File created by Blade
# Date/Time:  Thu Jan 22 19:34:15 2015
# Frame Rate: 120.000 fps
#------------------------------------------------------
:FULLY-SPECIFIED
:DEGREES
1498
root -5.135818 33.119380 -3.213934 7.420334 -4.668903 0.636260
RightUpLeg -28.296371 -2.256767 3.871071
RightLeg 55.135016 -0.000000 -0.000000
RightFoot -20.367099 -2.063732 9.079580
RightToeBase -8.254356 -0.000000 0.000000
LeftUpLeg -9.595715 -4.309119 -3.558362
LeftLeg 15.393100 -0.000000 -0.000000
LeftFoot -16.432798 4.874264 -11.883891
LeftToeBase 7.180663 -0.000000 -0.000000
Spine -3.302183 -4.555749 0.296924
RightShoulder -22.025237 -18.755624 -16.585920
RightArm 14.858338 30.222962 55.677379
RightForeArm -12.364869 -0.000000 56.465782
RightHand 12.796709 -0.000000 -17.155344
RightHandThumb1 -24.326973 -0.000000 -32.862282
LeftShoulder -24.366630 12.441618 23.099140
LeftArm 4.970886 -19.852782 -56.291344
LeftForeArm 23.061517 -0.000000 63.961647
LeftHand -8.835763 0.000000 -0.047953
LeftHandThumb1 -26.253704 0.000000 33.147579
Head -21.181609 11.281867 -3.732998
1499
root -5.144672 33.138636 -3.170760 7.400485 -4.550577 0.693080
RightUpLeg -26.747602 -1.837894 3.669480
RightLeg 51.955535 -0.000000 -0.000000
RightFoot -20.257205 -1.388516 9.440624
RightToeBase -8.367802 -0.000000 0.000000
LeftUpLeg -9.100626 -4.405905 -3.588704
LeftLeg 14.545065 -0.000000 -0.000000
LeftFoot -16.107537 4.886196 -11.926628
LeftToeBase 7.356686 -0.000000 -0.000000
Spine -3.569723 -4.464580 0.128850
RightShoulder -21.992557 -18.586825 -16.732717
RightArm 14.915996 30.267495 55.050253
RightForeArm -12.314910 -0.000000 54.839176
RightHand 12.934615 -0.000000 -17.092102
RightHandThumb1 -24.326973 -0.000000 -32.862282
LeftShoulder -24.316145 12.444687 23.257094
LeftArm 5.174750 -19.707503 -55.410841
LeftForeArm 23.098922 -0.000000 62.494112
LeftHand -8.575291 -0.000000 0.129174
LeftHandThumb1 -26.253704 0.000000 33.147579
Head -20.737599 11.098405 -3.512901
1500
root -5.152325 33.151006 -3.129355 7.374166 -4.467900 0.795060
RightUpLeg -25.294526 -1.256926 3.391946
RightLeg 49.001490 -0.000000 -0.000000
RightFoot -20.047031 -0.750932 9.778916
RightToeBase -8.723572 -0.000000 0.000000
LeftUpLeg -8.630518 -4.433277 -3.671767
LeftLeg 13.741450 -0.000000 -0.000000
LeftFoot -15.797597 4.861650 -11.962492
LeftToeBase 7.483856 -0.000000 -0.000000
Spine -3.805850 -4.360058 -0.097311
RightShoulder -21.989483 -18.412540 -16.924616
RightArm 15.048611 30.270895 54.511556
RightForeArm -12.111284 0.000000 53.181972
RightHand 13.303978 -0.000000 -17.233816
RightHandThumb1 -24.326973 -0.000000 -32.862282
LeftShoulder -24.304375 12.416427 23.446107
LeftArm 5.382535 -19.464501 -54.509173
LeftForeArm 23.149870 -0.000000 61.024545
LeftHand -8.259097 -0.000000 0.341574
LeftHandThumb1 -26.253704 0.000000 33.147579
Head -20.348457 10.914759 -3.305903
1501
root -5.159693 33.155219 -3.094946 7.373447 -4.421691 0.918428
RightUpLeg -23.958672 -0.607671 3.118751
RightLeg 46.261357 -0.000000 -0.000000
RightFoot -19.889313 -0.375023 10.123867
RightToeBase -9.088377 -0.000000 0.000000
LeftUpLeg -8.275161 -4.362843 -3.771382
LeftLeg 13.119916 -0.000000 -0.000000
LeftFoot -15.554680 4.720643 -11.922041
LeftToeBase 7.649667 -0.000000 -0.000000
Spine -4.039440 -4.239585 -0.352834
RightShoulder -21.988103 -18.273883 -17.119746
RightArm 15.177688 30.223336 53.924348
RightForeArm -11.918673 -0.000000 51.541159
RightHand 14.194954 -0.000000 -17.710445
RightHandThumb1 -24.326973 -0.000000 -32.862282
LeftShoulder -24.329629 12.397635 23.569529
LeftArm 5.648530 -19.243995 -53.498239
LeftForeArm 23.158589 -0.000000 59.579789
LeftHand -8.027802 0.000000 0.655659
LeftHandThumb1 -26.253704 0.000000 33.147579
Head -19.998208 10.741642 -3.118686
1502
root -5.170361 33.155696 -3.073239 7.443453 -4.414286 1.036563
RightUpLeg -22.772227 0.170130 2.843528
RightLeg 43.686483 -0.000000 -0.000000
RightFoot -19.624066 -0.132745 10.635381
RightToeBase -9.688100 -0.000000 0.000000
LeftUpLeg -8.048931 -4.250877 -3.852341
LeftLeg 12.586492 -0.000000 -0.000000
LeftFoot -15.354251 4.550829 -11.956002
LeftToeBase 7.750499 -0.000000 -0.000000
Spine -4.311672 -4.104534 -0.608720
RightShoulder -21.967418 -18.193453 -17.296035
RightArm 15.387369 30.290680 53.417071
RightForeArm -11.738625 -0.000000 50.045160
RightHand 14.454038 -0.000000 -17.761821
RightHandThumb1 -24.326973 -0.000000 -32.862282
LeftShoulder -24.348124 12.504019 23.678835
LeftArm 5.972003 -19.100997 -52.543510
LeftForeArm 23.327588 0.000000 58.137193
LeftHand -7.761123 0.000000 1.016561
LeftHandThumb1 -26.253704 0.000000 33.147579
Head -19.702451 10.629009 -2.946168
1503
root -5.183284 33.151066 -3.050539 7.482018 -4.479367 1.190807
RightUpLeg -21.648774 1.063899 2.538875
RightLeg 41.334764 -0.000000 -0.000000
RightFoot -19.225002 -0.093821 11.191931
RightToeBase -10.313948 -0.000000 0.000000
LeftUpLeg -7.827369 -4.026777 -3.984944
LeftLeg 12.134715 -0.000000 -0.000000
LeftFoot -15.211701 4.315970 -12.013352
LeftToeBase 7.923041 -0.000000 -0.000000
Spine -4.524875 -3.887984 -0.941540
RightShoulder -21.948749 -18.067959 -17.480628
RightArm 15.447396 30.328883 52.869598
RightForeArm -11.720196 -0.000000 48.658499
RightHand 15.102458 -0.000000 -17.772009
RightHandThumb1 -24.326973 -0.000000 -32.862282
LeftShoulder -24.359920 12.590517 23.825152
LeftArm 6.315028 -18.910180 -51.565530
LeftForeArm 23.254397 -0.000000 56.667674
LeftHand -7.294272 -0.000000 1.351644
LeftHandThumb1 -26.253704 0.000000 33.147579
Head -19.477381 10.470546 -2.761226
1504
root -5.193903 33.143297 -3.040531 7.566771 -4.482202 1.315601
RightUpLeg -20.658133 1.847177 2.284692
RightLeg 39.171364 -0.000000 -0.000000
RightFoot -18.612788 -0.281640 11.567149
RightToeBase -10.810808 -0.000000 0.000000
LeftUpLeg -7.734830 -4.009622 -4.064851
LeftLeg 11.807739 -0.000000 -0.000000
LeftFoot -15.195333 4.164943 -12.212079
LeftToeBase 8.199776 -0.000000 -0.000000
Spine -4.742843 -3.802142 -1.177022
RightShoulder -21.876454 -17.945085 -17.748542
RightArm 15.547308 30.297549 52.341352
RightForeArm -11.602734 -0.000000 47.357737
RightHand 15.243333 -0.000000 -17.888170
RightHandThumb1 -24.326973 -0.000000 -32.862282
LeftShoulder -24.450726 12.735825 23.878650
LeftArm 6.770104 -18.769750 -50.627894
LeftForeArm 23.294718 -0.000000 55.055239
LeftHand -7.135517 -0.000000 2.199328
LeftHandThumb1 -26.253704 0.000000 33.147579
Head -19.311431 10.361126 -2.696108
1505
root -5.202679 33.133847 -3.031961 7.646445 -4.537403 1.465985
RightUpLeg -19.719398 2.617317 2.013606
RightLeg 37.152977 -0.000000 -0.000000
RightFoot -17.937991 -0.725607 11.653408
RightToeBase -10.785038 -0.000000 0.000000
LeftUpLeg -7.637756 -4.104368 -4.173925
LeftLeg 11.486960 -0.000000 -0.000000
LeftFoot -15.147607 4.174699 -12.369072
LeftToeBase 8.280579 -0.000000 -0.000000
Spine -4.921221 -3.640102 -1.451362
RightShoulder -21.883427 -17.897722 -17.924755
RightArm 15.712011 30.295747 51.802083
RightForeArm -11.470457 -0.000000 46.185541
RightHand 15.141720 -0.000000 -17.865023
RightHandThumb1 -24.326973 -0.000000 -32.862282
LeftShoulder -24.539156 12.893076 23.947667
LeftArm 7.300168 -18.724589 -49.805495
LeftForeArm 23.283025 -0.000000 53.455149
LeftHand -7.222307 -0.000000 2.752368
LeftHandThumb1 -26.253704 0.000000 33.147579
Head -19.221427 10.223421 -2.638125
1506
root -5.210287 33.121910 -3.024823 7.730557 -4.594376 1.632090
RightUpLeg -18.853066 3.192922 1.746369
RightLeg 35.313605 -0.000000 -0.000000
RightFoot -17.596058 -1.334039 11.070327
RightToeBase -8.547349 -0.000000 0.000000
LeftUpLeg -7.574981 -4.382597 -4.285403
LeftLeg 11.247952 -0.000000 -0.000000
LeftFoot -15.187442 4.356438 -12.614209
LeftToeBase 8.434197 -0.000000 -0.000000
Spine -5.088125 -3.483122 -1.717027
RightShoulder -21.863379 -17.806496 -18.162004
RightArm 15.776067 30.258589 51.238708
RightForeArm -11.485309 0.000000 45.134446
RightHand 14.960656 -0.000000 -17.873134
RightHandThumb1 -24.326973 -0.000000 -32.862282
LeftShoulder -24.565900 12.932163 24.032639
LeftArm 7.653225 -18.600515 -48.894571
LeftForeArm 23.118991 -0.000000 51.871655
LeftHand -7.263380 -0.000000 3.384938
LeftHandThumb1 -26.253704 0.000000 33.147579
Head -19.175719 10.087069 -2.654349
